<?xml version="1.0" standalone="no"?>
<!DOCTYPE svg PUBLIC "-//W3C//DTD SVG 20010904//EN"
 "http://www.w3.org/TR/2001/REC-SVG-20010904/DTD/svg10.dtd">
<svg version="1.0" xmlns="http://www.w3.org/2000/svg"
 width="600.000000pt" height="600.000000pt" viewBox="0 0 600.000000 600.000000"
 preserveAspectRatio="xMidYMid meet">
<metadata>
Created by potrace 1.16, written by Peter Selinger 2001-2019
</metadata>
<g transform="translate(0.000000,600.000000) scale(0.100000,-0.100000)"
fill="#fff" stroke="none">
<path d="M657 4869 c-103 -24 -206 -111 -254 -214 -24 -52 -28 -72 -28 -155 0
-83 4 -103 28 -156 36 -77 113 -154 192 -191 l60 -28 2345 0 2345 0 58 27 c80
38 158 115 193 191 25 54 29 74 29 157 0 83 -4 103 -28 156 -36 77 -113 154
-192 191 l-60 28 -2325 2 c-1330 0 -2341 -3 -2363 -8z"/>
<path d="M657 3369 c-103 -24 -206 -111 -254 -214 -24 -52 -28 -72 -28 -155 0
-83 4 -103 28 -156 36 -77 113 -154 192 -191 l60 -28 2345 0 2345 0 58 27 c80
38 158 115 193 191 25 54 29 74 29 157 0 83 -4 103 -28 156 -36 77 -113 154
-192 191 l-60 28 -2325 2 c-1330 0 -2341 -3 -2363 -8z"/>
<path d="M657 1869 c-103 -24 -206 -111 -254 -214 -24 -52 -28 -72 -28 -155 0
-83 4 -103 28 -156 36 -77 113 -154 192 -191 l60 -28 2345 0 2345 0 58 27 c80
38 158 115 193 191 25 54 29 74 29 157 0 83 -4 103 -28 156 -36 77 -113 154
-192 191 l-60 28 -2325 2 c-1330 0 -2341 -3 -2363 -8z"/>
</g>
</svg>
